<svg width="48" height="48" viewBox="0 0 48 48" fill="none" xmlns="http://www.w3.org/2000/svg">
<path d="M39.4326 10.4177C39.4326 10.6898 39.4544 10.7986 39.4762 10.6571C39.498 10.5265 39.498 10.3088 39.4762 10.1673C39.4544 10.0367 39.4326 10.1455 39.4326 10.4177Z" fill="#DFDFF3"/>
<path d="M39.4326 12.9756C39.4326 13.215 39.4544 13.3021 39.4762 13.1606C39.4979 13.03 39.4979 12.8341 39.4762 12.7252C39.4435 12.6273 39.4218 12.7361 39.4326 12.9756Z" fill="#DFDFF3"/>
<path d="M8.50885 29.2484C8.50885 29.4552 8.53062 29.5423 8.56327 29.4335C8.58504 29.3355 8.58504 29.1613 8.56327 29.0525C8.53062 28.9545 8.50885 29.0416 8.50885 29.2484Z" fill="#DFDFF3"/>
<path d="M26.2293 29.7926C26.1423 29.847 26.0987 29.9015 26.1314 29.9015C26.2185 29.9015 25.4456 30.7287 25.3586 30.7287C25.1735 30.7287 24.8143 30.9138 24.8143 31.0008C24.8143 31.0661 24.7163 31.077 24.5966 31.0444C24.4769 31.0008 24.3789 31.0226 24.3789 31.0879C24.3789 31.1532 24.1721 31.2077 23.9218 31.2077C23.6279 31.2077 23.5081 31.175 23.5952 31.1097C23.6823 31.0553 23.5952 31.0335 23.3449 31.0335C23.138 31.0444 22.9639 31.0879 22.9639 31.1315C22.9639 31.175 22.8768 31.3056 22.7788 31.4145C22.3979 31.8281 22.3326 31.9369 22.2564 32.2744C22.2128 32.5029 22.1149 32.6227 21.9951 32.6227C21.7883 32.6227 21.5489 33.0363 21.5489 33.3846C21.5489 33.537 21.4727 33.6023 21.2876 33.6023C21.1244 33.6023 21.0046 33.6785 20.972 33.82C20.9393 33.9506 20.8196 34.0377 20.689 34.0377C20.5366 34.0377 20.4604 34.103 20.4604 34.2554C20.4604 34.3751 20.3842 34.4731 20.2971 34.4731C20.21 34.4731 20.1338 34.5166 20.1338 34.5819C20.1338 34.6364 20.0141 34.6908 19.8617 34.6908C19.6876 34.6908 19.5896 34.7561 19.5896 34.8541C19.5896 34.9411 19.4916 35.0173 19.3719 35.0173C19.2304 35.0173 19.1542 35.0935 19.1542 35.2242C19.1542 35.3874 19.0562 35.4527 18.7188 35.4963C18.4793 35.5289 18.0875 35.5942 17.848 35.6269C17.5759 35.6704 17.4126 35.7466 17.4126 35.8446C17.4126 35.9317 17.3147 35.997 17.2058 35.997C17.0861 35.997 16.9772 36.0514 16.9555 36.1167C16.901 36.2691 13.9295 36.3997 13.9295 36.2364C13.9295 36.182 13.6682 36.1058 13.3635 36.0732C12.5471 35.997 11.9811 35.8555 11.4586 35.5834C11.2083 35.4527 10.9253 35.3765 10.8382 35.4092C10.7402 35.4527 10.664 35.4201 10.664 35.3439C10.664 35.2677 10.5878 35.235 10.5008 35.2786C10.3701 35.3221 10.3484 35.2786 10.4028 35.0391C10.4463 34.8323 10.4355 34.7888 10.3593 34.8976C10.2722 35.0173 10.2504 35.0173 10.196 34.8976C10.1525 34.767 10.1198 34.767 10.0001 34.8976C9.86945 35.0282 9.86945 35.0391 10.0001 34.9629C10.1198 34.8976 10.1416 34.9194 10.0871 35.0609C10.0327 35.1806 10.0545 35.2242 10.1416 35.1697C10.2286 35.1153 10.2395 35.148 10.196 35.2786C10.1416 35.3983 10.1633 35.4418 10.2504 35.3874C10.3375 35.333 10.3484 35.3657 10.3048 35.4963C10.2504 35.616 10.2722 35.6595 10.3593 35.6051C10.4463 35.5507 10.4572 35.5834 10.4137 35.714C10.3701 35.8228 10.381 35.8772 10.4463 35.8337C10.5443 35.7684 10.5987 35.9208 10.5661 36.1276C10.5661 36.182 10.6096 36.2147 10.6858 36.2147C10.7511 36.2147 10.7838 36.2473 10.7402 36.28C10.7076 36.3126 10.7729 36.4324 10.8926 36.5521C11.0124 36.6718 11.0777 36.8133 11.045 36.8569C11.0232 36.9113 11.0668 36.9875 11.1647 37.0201C11.2518 37.0528 11.2954 37.129 11.2627 37.1943C11.23 37.2596 11.2736 37.3358 11.3607 37.3685C11.4586 37.4011 11.5131 37.4664 11.4804 37.51C11.4586 37.5644 11.6001 37.7821 11.8069 38.0107C12.0138 38.2392 12.1879 38.4461 12.1879 38.4896C12.1879 38.5331 12.4491 38.8161 12.7648 39.1318C13.3417 39.6978 13.3417 39.6978 14.0383 39.6978C17.9133 39.6978 20.9393 38.5658 23.1707 36.28C24.9667 34.4513 25.8157 32.7642 26.3926 29.8688C26.4362 29.6511 26.4362 29.6511 26.2293 29.7926Z" fill="#DFDFF3"/>
<path d="M13.6574 4.10446C11.1756 4.60517 9.1837 6.62974 8.63946 9.22033C7.77955 13.3021 11.2409 17.2098 15.4425 16.905C18.8712 16.6547 21.44 13.879 21.44 10.4394C21.44 9.93873 21.3638 9.23122 21.2659 8.86113C20.6781 6.57532 18.7732 4.69224 16.5201 4.15889C15.7908 3.98473 14.3758 3.96296 13.6574 4.10446Z" fill="#DFDFF3"/>
<path d="M31.269 4.2133C30.3438 4.45277 29.854 4.69224 29.0594 5.2909C27.9709 6.10726 27.1437 7.3046 26.7301 8.67608C26.5559 9.22032 26.545 10.2108 26.5559 19.082C26.5668 27.2891 26.545 28.9654 26.4144 29.3355C26.3273 29.5858 26.2947 29.76 26.3382 29.7382C26.4362 29.6729 26.4253 29.7273 26.1641 30.8811C25.6851 32.9928 24.7599 34.669 23.1707 36.28C20.9393 38.5658 17.9787 39.6761 14.0384 39.6978L13.3308 39.7087L13.9295 40.253C15.6928 41.8748 18.2617 43.1483 20.9829 43.747C22.5067 44.0844 25.4892 44.0844 27.0675 43.747C33.3154 42.3973 37.9197 37.7495 39.2585 31.4254C39.4435 30.5655 39.4544 29.7056 39.4435 20.0507C39.4327 8.49104 39.4653 9.00263 38.7251 7.47875C38.2571 6.51 36.8965 5.16028 35.906 4.68135C34.4801 3.98472 32.7929 3.81057 31.269 4.2133Z" fill="#DFDFF3"/>
<path d="M13.9839 22.0753C11.1321 22.4781 8.95511 24.6986 8.59591 27.5939C8.3891 29.2049 8.84626 32.1438 9.58643 34.016C9.94563 34.9085 10.5334 36.1059 10.6096 36.1059C10.6423 36.1059 10.5878 35.9535 10.4899 35.7684C10.3593 35.5181 10.3484 35.3983 10.4463 35.3004C10.5334 35.2133 10.5878 35.2242 10.6531 35.333C10.7076 35.4092 10.8055 35.4528 10.8708 35.4092C10.9253 35.3657 11.1974 35.4419 11.4477 35.5725C11.9811 35.8555 12.5471 35.997 13.3635 36.0732C13.6682 36.1059 13.9295 36.1821 13.9295 36.2365C13.9295 36.3998 16.901 36.2691 16.9555 36.1167C16.9772 36.0514 17.0861 35.997 17.2058 35.997C17.3147 35.997 17.4126 35.9317 17.4126 35.8446C17.4126 35.7467 17.5759 35.6705 17.848 35.6269C18.0875 35.5943 18.4793 35.529 18.7188 35.4963C19.0562 35.4528 19.1542 35.3875 19.1542 35.2242C19.1542 35.0936 19.2304 35.0174 19.3719 35.0174C19.4916 35.0174 19.5896 34.9412 19.5896 34.8541C19.5896 34.7561 19.6875 34.6908 19.8617 34.6908C20.0141 34.6908 20.1338 34.6364 20.1338 34.582C20.1338 34.5167 20.21 34.4731 20.2971 34.4731C20.3842 34.4731 20.4604 34.3752 20.4604 34.2554C20.4604 34.1031 20.5366 34.0377 20.6889 34.0377C20.8196 34.0377 20.9393 33.9507 20.972 33.82C21.0046 33.6785 21.1243 33.6024 21.2876 33.6024C21.4727 33.6024 21.5489 33.537 21.5489 33.3847C21.5489 33.0363 21.7883 32.6227 21.9951 32.6227C22.1149 32.6227 22.2128 32.503 22.2564 32.2744C22.3326 31.937 22.3979 31.8281 22.7788 31.4145C22.8768 31.3057 22.9748 31.175 22.9965 31.1206C23.0074 31.0771 23.0945 31.0553 23.1816 31.0771C23.2687 31.0988 23.5952 31.1315 23.8891 31.1533L24.4333 31.1968L23.8891 31.1097C23.5952 31.0553 23.1489 30.9356 22.9095 30.8267C22.67 30.7179 22.4305 30.6417 22.387 30.6526C22.3326 30.6635 22.3217 30.6199 22.3543 30.5764C22.387 30.5219 22.3108 30.3804 22.1911 30.2716C21.7448 29.8689 21.5271 29.2484 21.44 28.1599C21.3203 26.7885 21.0046 25.8415 20.3406 24.8401C18.9691 22.8046 16.5092 21.727 13.9839 22.0753ZM10.2286 34.9303C10.2286 35.0283 10.2722 35.0174 10.3375 34.9085C10.4354 34.767 10.4463 34.767 10.4463 34.9085C10.4463 34.9956 10.4028 35.1371 10.3593 35.2133C10.2939 35.3113 10.2286 35.2786 10.1416 35.0718C10.0654 34.9085 10.0545 34.7997 10.1198 34.7997C10.1851 34.7997 10.2286 34.865 10.2286 34.9303Z" fill="#DFDFF3"/>
</svg>
